<svg id="Layer_1" data-name="Layer 1" xmlns="http://www.w3.org/2000/svg" viewBox="0 0 821.74 274.79"><defs><style>.cls-1{fill:#32d9ff;}.cls-2{fill:#fff;}.cls-3{fill:#ffe1ed;}.cls-4{fill:#333;}.cls-5,.cls-6,.cls-7{fill:none;stroke-miterlimit:10;}.cls-5,.cls-6{stroke:#f2f2f2;}.cls-6{stroke-dasharray:5.19 5.19;}.cls-7{stroke:#e6e6e6;}.cls-8{fill:#2abff4;}.cls-9{fill:#bf2424;}.cls-10{fill:#ff6c6c;}.cls-11{font-size:146.86px;fill:#d3e5ed;font-family:Baloo Bhaina;letter-spacing:-5px;}</style></defs><title>logo</title><rect class="cls-1" x="0.61" width="221" height="230" rx="70" ry="70"/><rect class="cls-2" x="41.11" y="54" width="140" height="140" rx="29.71" ry="29.71"/><circle class="cls-3" cx="79.96" cy="108.52" r="6.76"/><circle class="cls-3" cx="142.96" cy="108.52" r="6.76"/><rect class="cls-4" x="87.96" y="87.81" width="6" height="9.47" rx="3" ry="3"/><rect class="cls-4" x="127.96" y="87.81" width="6" height="9.47" rx="3" ry="3"/><line class="cls-5" x1="105.96" y1="59.25" x2="105.96" y2="61.75"/><line class="cls-6" x1="105.96" y1="66.94" x2="105.96" y2="188.9"/><line class="cls-5" x1="105.96" y1="191.5" x2="105.96" y2="194"/><line class="cls-7" x1="115.96" y1="73.75" x2="115.96" y2="194"/><path class="cls-8" d="M248.44-1193.67c-6,0-5.73-12-11.75-12s-5.87,12-11.89,12-5.94-12-12-12-6,12-12,12-6-12-12-12-6,12-12,12-6-12-12-12-6,12-12,12-6-12-12-12-6,12-12,12-6-12-12-12-6,12-12,12-6-12-12-12-6,12-12,12-6-12-12-12-6,12-12,12-6-12-12-12-6.6,12-12.61,12a15.12,15.12,0,0,1-1.9-.22v0.89c0,38.5,32.67,70,71.17,70h81c38.5,0,68.83-31.5,68.83-70v-2.07C250-1194.21,249.72-1193.67,248.44-1193.67Z" transform="translate(-30 1353)"/><path class="cls-9" d="M154-1250.79a13,13,0,0,1-12.94,12.94h0a13,13,0,0,1-12.94-12.94" transform="translate(-30 1353)"/><path class="cls-10" d="M149.73-1241.43a12.88,12.88,0,0,0-8.88-3.57,12.88,12.88,0,0,0-8.88,3.57,12.88,12.88,0,0,0,8.88,3.57A12.88,12.88,0,0,0,149.73-1241.43Z" transform="translate(-30 1353)"/><path class="cls-7" d="M145.85-1276.9c0-15.4-12-16.85-12-16.85L97.1-1299" transform="translate(-30 1353)"/><path class="cls-7" d="M141.84-1289.23a13.92,13.92,0,0,1,8-4.52l33.5-4.87" transform="translate(-30 1353)"/><circle class="cls-2" cx="47.18" cy="184" r="6.76"/><circle class="cls-2" cx="163.94" cy="-1171.54" r="4.22" transform="translate(1251.79 568.5) rotate(-78.87)"/><circle class="cls-2" cx="119.57" cy="-1141.59" r="2.48" transform="translate(1186.59 549.14) rotate(-78.87)"/><circle class="cls-2" cx="196.85" cy="153.33" r="8.38"/><circle class="cls-2" cx="194.39" cy="54.38" r="13.29"/><text class="cls-11" transform="translate(255.61 153.33)">washapp</text></svg>