<svg id="Layer_1" data-name="Layer 1" xmlns="http://www.w3.org/2000/svg" viewBox="0 0 618.56 1041.72"><defs><style>.cls-1,.cls-13{fill:#d3e5ed;}.cls-2,.cls-4{fill:#fff;}.cls-2{stroke:#d3e5ed;stroke-width:5px;}.cls-2,.cls-7,.cls-8,.cls-9{stroke-miterlimit:10;}.cls-3{fill:#32d9ff;}.cls-5{fill:#ffe1ed;}.cls-6{fill:#333;}.cls-7,.cls-8,.cls-9{fill:none;}.cls-7,.cls-8{stroke:#f2f2f2;}.cls-8{stroke-dasharray:5.19 5.19;}.cls-9{stroke:#e6e6e6;}.cls-10{fill:#2abff4;}.cls-11{fill:#bf2424;}.cls-12{fill:#ff6c6c;}.cls-13{font-size:75.51px;font-family:Baloo Bhaina;letter-spacing:-3px;}</style></defs><title>wash-phone</title><rect class="cls-1" width="606.06" height="1022.22" rx="80.56" ry="80.56"/><rect class="cls-2" x="40" y="19.76" width="576.06" height="1019.46" rx="80.56" ry="80.56"/><rect class="cls-2" x="57.03" y="99.01" width="542" height="838.72" rx="17.36" ry="17.36"/><rect class="cls-2" x="297.19" y="956.53" width="63.01" height="63.01" rx="15" ry="15"/><rect class="cls-3" x="217.57" y="302.72" width="221" height="230" rx="70" ry="70"/><rect class="cls-4" x="258.07" y="356.72" width="140" height="140" rx="29.71" ry="29.71"/><circle class="cls-5" cx="296.92" cy="411.24" r="6.76"/><circle class="cls-5" cx="359.92" cy="411.24" r="6.76"/><rect class="cls-6" x="304.92" y="390.54" width="6" height="9.47" rx="3" ry="3"/><rect class="cls-6" x="344.92" y="390.54" width="6" height="9.47" rx="3" ry="3"/><line class="cls-7" x1="322.92" y1="361.97" x2="322.92" y2="364.47"/><line class="cls-8" x1="322.92" y1="369.66" x2="322.92" y2="491.63"/><line class="cls-7" x1="322.92" y1="494.22" x2="322.92" y2="496.72"/><line class="cls-9" x1="332.92" y1="376.47" x2="332.92" y2="496.72"/><path class="cls-10" d="M-199.56-388.67c-6,0-5.73-12-11.75-12s-5.87,12-11.89,12-5.94-12-12-12-6,12-12,12-6-12-12-12-6,12-12,12-6-12-12-12-6,12-12,12-6-12-12-12-6,12-12,12-6-12-12-12-6,12-12,12-6-12-12-12-6,12-12,12-6-12-12-12-6,12-12,12-6-12-12-12-6.6,12-12.61,12a15.12,15.12,0,0,1-1.9-.22V-388c0,38.5,32.67,70,71.17,70h81c38.5,0,68.83-31.5,68.83-70v-2.07C-198-389.21-198.28-388.67-199.56-388.67Z" transform="translate(634.95 850.72)"/><path class="cls-11" d="M-294-445.79a13,13,0,0,1-12.94,12.94h0a13,13,0,0,1-12.94-12.94" transform="translate(634.95 850.72)"/><path class="cls-12" d="M-298.27-436.43a12.88,12.88,0,0,0-8.88-3.57,12.88,12.88,0,0,0-8.88,3.57,12.88,12.88,0,0,0,8.88,3.57A12.88,12.88,0,0,0-298.27-436.43Z" transform="translate(634.95 850.72)"/><path class="cls-9" d="M-302.15-471.9c0-15.4-12-16.85-12-16.85L-350.9-494" transform="translate(634.95 850.72)"/><path class="cls-9" d="M-306.16-484.23a13.92,13.92,0,0,1,8-4.52l33.5-4.87" transform="translate(634.95 850.72)"/><circle class="cls-4" cx="264.13" cy="486.72" r="6.76"/><circle class="cls-4" cx="-284.06" cy="-366.54" r="4.22" transform="translate(765.38 276.23) rotate(-78.87)"/><circle class="cls-4" cx="-328.43" cy="-336.59" r="2.48" transform="translate(700.18 256.87) rotate(-78.87)"/><circle class="cls-4" cx="413.8" cy="456.06" r="8.38"/><circle class="cls-4" cx="411.34" cy="357.1" r="13.29"/><text class="cls-13" transform="translate(180.57 612.63)">washapp</text></svg>